<svg width="12" height="13" viewBox="0 0 12 13" fill="none" xmlns="http://www.w3.org/2000/svg">
<path fill-rule="evenodd" clip-rule="evenodd" d="M6 12.5C9.31371 12.5 12 9.81371 12 6.5C12 3.18629 9.31371 0.5 6 0.5C2.68629 0.5 0 3.18629 0 6.5C0 9.81371 2.68629 12.5 6 12.5ZM6.05556 2.5C6.3317 2.5 6.55556 2.72386 6.55556 3V6.05556H9.5C9.77614 6.05556 10 6.27941 10 6.55556C10 6.8317 9.77614 7.05556 9.5 7.05556H6.55556V10C6.55556 10.2761 6.3317 10.5 6.05556 10.5C5.77941 10.5 5.55556 10.2761 5.55556 10V7.05556H2.5C2.22386 7.05556 2 6.8317 2 6.55556C2 6.27941 2.22386 6.05556 2.5 6.05556H5.55556V3C5.55556 2.72386 5.77941 2.5 6.05556 2.5Z" fill="white"/>
</svg>
