<svg width="45" height="40" viewBox="0 0 45 40" fill="none" xmlns="http://www.w3.org/2000/svg">
<g id="danger bell">
<g id="Vector">
<path d="M10.384 36V33.8829H13.316L17.074 20.452C17.2633 19.6969 17.646 19.1006 18.222 18.663C18.7967 18.2241 19.4407 18.0046 20.154 18.0046H25.846C26.5593 18.0046 27.2033 18.2234 27.778 18.6609C28.354 19.0999 28.7367 19.6969 28.926 20.452L32.686 33.8829H35.616V36H10.384ZM22 12.4684V8.2342V4H24V8.2342V12.4684H22ZM32.9 17.2594L31.474 15.7499L37.15 9.79239L38.526 11.2511L32.9 17.2594ZM36 27.2881V25.171H44V27.2881H36ZM13.1 17.2594L7.474 11.2511L8.85 9.79239L14.526 15.7499L13.1 17.2594ZM2 27.2881V25.171H10V27.2881H2Z" fill="white"/>
<path d="M23.6176 22.1658H22V26.4V28.5171V30.6342H23.6176V28.5171V26.4V22.1658Z" fill="#D2D2D2"/>
</g>
</g>
</svg>
