<svg width="26" height="26" viewBox="0 0 26 26" fill="none" xmlns="http://www.w3.org/2000/svg">
<g id="G">
<circle id="Ellipse 32" cx="13" cy="13" r="13" fill="#FF39B0"/>
<path id="Union" fill-rule="evenodd" clip-rule="evenodd" d="M16.3793 9.98963C16.3793 12.0826 14.6826 13.7792 12.5897 13.7792C10.4967 13.7792 8.80005 12.0826 8.80005 9.98963C8.80005 7.89668 10.4967 6.20001 12.5897 6.20001C14.6826 6.20001 16.3793 7.89668 16.3793 9.98963ZM13.0897 14.7535C15.4999 14.5034 17.3793 12.466 17.3793 9.98963C17.3793 7.3444 15.2349 5.20001 12.5897 5.20001C9.94443 5.20001 7.80005 7.3444 7.80005 9.98963C7.80005 12.466 9.67941 14.5034 12.0897 14.7535V16.1741H9.8967C9.62056 16.1741 9.3967 16.3979 9.3967 16.6741C9.3967 16.9502 9.62056 17.1741 9.8967 17.1741H12.0897V21.4158C12.0897 21.692 12.3135 21.9158 12.5897 21.9158C12.8658 21.9158 13.0897 21.692 13.0897 21.4158V17.1741H15.2829C15.559 17.1741 15.7829 16.9502 15.7829 16.6741C15.7829 16.3979 15.559 16.1741 15.2829 16.1741H13.0897V14.7535Z" fill="white"/>
</g>
</svg>
