<svg width="24" height="24" viewBox="0 0 24 24" fill="none" xmlns="http://www.w3.org/2000/svg">
<path d="M19.7345 14.7273L17.3075 13.2244L18.2419 11.603C18.4673 11.1982 18.5854 10.7476 18.586 10.29V7.71967C18.5879 6.99696 18.3667 6.28946 17.9497 5.68404C17.5326 5.07863 16.9379 4.60167 16.2384 4.31172C15.5389 4.02177 14.7652 3.93145 14.0123 4.05187C13.2594 4.17228 12.56 4.49818 12 4.98955L12.8203 5.82765C13.2083 5.48811 13.6926 5.2631 14.2137 5.18022C14.7348 5.09733 15.2702 5.16017 15.7542 5.36103C16.2381 5.56189 16.6496 5.89204 16.9383 6.311C17.2269 6.72996 17.3801 7.21953 17.379 7.71967V10.29C17.3789 10.5564 17.3114 10.819 17.1823 11.0558L15.7144 13.6028L19.0736 15.6831C19.2953 15.8205 19.4773 16.0081 19.6029 16.2289C19.7286 16.4497 19.7939 16.6968 19.793 16.9476V18.8576H17.0773V20H21V16.9476C21.0012 16.507 20.8861 16.0731 20.6651 15.6854C20.444 15.2976 20.1242 14.9683 19.7345 14.7273Z" fill="#686868"/>
<path d="M14.802 15.7266L12.5047 14.2235L13.3892 12.6019C13.6026 12.197 13.7143 11.7463 13.7149 11.2886V8.71796C13.7142 7.73262 13.3226 6.78781 12.6261 6.0908C11.9296 5.39379 10.9851 5.0015 9.99976 5C7.9533 5 6.2884 6.66789 6.2884 8.71796V11.2886C6.28622 11.7461 6.39677 12.197 6.61028 12.6016L7.4996 14.232L5.21563 15.7266C4.84716 15.9672 4.54462 16.296 4.33545 16.6832C4.12628 17.0704 4.01712 17.5037 4.01785 17.9438L4 21H16V17.9471C16.0011 17.5065 15.8922 17.0726 15.6829 16.6848C15.4737 16.297 15.1709 15.9676 14.802 15.7266ZM14.8575 19.8575H5.14918L5.16025 17.9471C5.15939 17.6963 5.22123 17.4492 5.34016 17.2283C5.45909 17.0075 5.63134 16.8198 5.84124 16.6825L9.00758 14.6106L7.61328 12.0545C7.49241 11.8174 7.4299 11.5548 7.43094 11.2886V8.71796C7.43094 8.03618 7.70178 7.38232 8.18389 6.90023C8.66599 6.41814 9.31986 6.1473 10.0017 6.1473C10.6835 6.1473 11.3373 6.41814 11.8194 6.90023C12.3015 7.38232 12.5724 8.03618 12.5724 8.71796V11.2886C12.5723 11.5551 12.5084 11.8177 12.3862 12.0545L10.9967 14.6019L14.1765 16.6825C14.3864 16.8199 14.5586 17.0075 14.6775 17.2284C14.7965 17.4492 14.8583 17.6963 14.8575 17.9472V19.8575Z" fill="#686868"/>
</svg>
