<svg width="26" height="26" viewBox="0 0 26 26" fill="none" xmlns="http://www.w3.org/2000/svg">
<g id="G">
<circle id="Ellipse 32" cx="13" cy="13" r="13" fill="#7F7F7F"/>
<path id="Union" fill-rule="evenodd" clip-rule="evenodd" d="M16.379 9.98957C16.379 12.0825 14.6824 13.7792 12.5894 13.7792C10.4965 13.7792 8.7998 12.0825 8.7998 9.98957C8.7998 7.89662 10.4965 6.19995 12.5894 6.19995C14.6824 6.19995 16.379 7.89662 16.379 9.98957ZM13.0894 14.7534C15.4997 14.5034 17.379 12.466 17.379 9.98957C17.379 7.34434 15.2347 5.19995 12.5894 5.19995C9.94419 5.19995 7.7998 7.34434 7.7998 9.98957C7.7998 12.466 9.67917 14.5034 12.0894 14.7534V16.174H9.89646C9.62031 16.174 9.39646 16.3979 9.39646 16.674C9.39646 16.9501 9.62031 17.174 9.89646 17.174H12.0894V21.4157C12.0894 21.6919 12.3133 21.9157 12.5894 21.9157C12.8656 21.9157 13.0894 21.6919 13.0894 21.4157V17.174H15.2826C15.5588 17.174 15.7826 16.9501 15.7826 16.674C15.7826 16.3979 15.5588 16.174 15.2826 16.174H13.0894V14.7534Z" fill="white"/>
</g>
</svg>
