<svg width="18" height="18" viewBox="0 0 18 18" fill="none" xmlns="http://www.w3.org/2000/svg">
<g id="heart-outline">
<path id="Vector" d="M9.075 13.9125L9 13.9875L8.9175 13.9125C5.355 10.68 3 8.5425 3 6.375C3 4.875 4.125 3.75 5.625 3.75C6.78 3.75 7.905 4.5 8.3025 5.52H9.6975C10.095 4.5 11.22 3.75 12.375 3.75C13.875 3.75 15 4.875 15 6.375C15 8.5425 12.645 10.68 9.075 13.9125ZM12.375 2.25C11.07 2.25 9.8175 2.8575 9 3.81C8.1825 2.8575 6.93 2.25 5.625 2.25C3.315 2.25 1.5 4.0575 1.5 6.375C1.5 9.2025 4.05 11.52 7.9125 15.0225L9 16.0125L10.0875 15.0225C13.95 11.52 16.5 9.2025 16.5 6.375C16.5 4.0575 14.685 2.25 12.375 2.25Z" fill="#7F7F7F"/>
</g>
</svg>
