<svg width="68" height="68" viewBox="0 0 68 68" fill="none" xmlns="http://www.w3.org/2000/svg">
<path fill-rule="evenodd" clip-rule="evenodd" d="M61 2H7C4.23858 2 2 4.23858 2 7V40.8367L10.1248 33.2197C11.3509 32.0702 13.2821 32.1521 14.4065 33.4014L24.5757 44.7006C24.973 45.142 25.6651 45.142 26.0623 44.7006L49.2081 18.9831C50.3579 17.7055 52.3439 17.6533 53.5593 18.8687L66 31.3094V7C66 4.23858 63.7614 2 61 2ZM2 61V43.5781L11.4926 34.6788C11.9014 34.2956 12.5451 34.3229 12.9199 34.7393L23.0892 46.0385C24.2809 47.3627 26.3572 47.3627 27.5489 46.0385L50.6947 20.321C51.078 19.8952 51.74 19.8777 52.1451 20.2829L66 34.1378V61C66 63.7614 63.7614 66 61 66H7C4.23858 66 2 63.7614 2 61ZM7 0C3.13401 0 0 3.13401 0 7V61C0 64.866 3.13401 68 7 68H61C64.866 68 68 64.866 68 61V7C68 3.13401 64.866 0 61 0H7ZM22.5959 15.9149C22.5959 18.8055 20.2526 21.1489 17.3619 21.1489C14.4712 21.1489 12.1279 18.8055 12.1279 15.9149C12.1279 13.0242 14.4712 10.6808 17.3619 10.6808C20.2526 10.6808 22.5959 13.0242 22.5959 15.9149ZM24.5959 15.9149C24.5959 19.9101 21.3571 23.1489 17.3619 23.1489C13.3666 23.1489 10.1279 19.9101 10.1279 15.9149C10.1279 11.9196 13.3666 8.68082 17.3619 8.68082C21.3571 8.68082 24.5959 11.9196 24.5959 15.9149Z" fill="white"/>
</svg>
