<svg width="26" height="26" viewBox="0 0 26 26" fill="none" xmlns="http://www.w3.org/2000/svg">
<g id="B">
<circle id="Ellipse 31" cx="13" cy="13" r="13" fill="#7F7F7F"/>
<path id="Union" fill-rule="evenodd" clip-rule="evenodd" d="M19.5758 6.1001H15.9758C15.7549 6.1001 15.5758 6.27918 15.5758 6.5001C15.5758 6.72101 15.7549 6.9001 15.9758 6.9001L18.6101 6.9001L14.3967 11.1135C13.5073 10.3533 12.3527 9.89423 11.0909 9.89423C8.27928 9.89423 6 12.1735 6 14.9851C6 17.7968 8.27928 20.076 11.0909 20.076C13.9025 20.076 16.1818 17.7968 16.1818 14.9851C16.1818 13.7233 15.7227 12.5686 14.9624 11.6791L19.1758 7.46578V10.1001C19.1758 10.321 19.3549 10.5001 19.5758 10.5001C19.7967 10.5001 19.9758 10.321 19.9758 10.1001V6.5001C19.9758 6.27918 19.7967 6.1001 19.5758 6.1001ZM15.3333 14.9851C15.3333 17.3282 13.4339 19.2276 11.0909 19.2276C8.74788 19.2276 6.84848 17.3282 6.84848 14.9851C6.84848 12.6421 8.74788 10.7427 11.0909 10.7427C13.4339 10.7427 15.3333 12.6421 15.3333 14.9851Z" fill="white"/>
</g>
</svg>
