<svg width="31" height="30" viewBox="0 0 31 30" fill="none" xmlns="http://www.w3.org/2000/svg">
<path id="Union" fill-rule="evenodd" clip-rule="evenodd" d="M13.5576 4.62149C13.9534 7.40515 12.6338 9.8579 10.6103 10.0998C8.58686 10.3418 6.62572 8.28133 6.23 5.49766C5.83429 2.714 7.15384 0.261252 9.17731 0.0193042C11.2008 -0.222644 13.1619 1.83782 13.5576 4.62149ZM15.8908 11.7337C14.7797 11.872 11.749 12.8521 10.132 16.8067C9.79536 17.6301 8.69239 18.0739 7.46723 18.5669C5.33115 19.4263 2.82362 20.4353 3.3582 23.8663C4.40263 30.5696 15.148 30.9409 15.9365 26.3859C16.725 30.9409 27.4704 30.5696 28.5148 23.8663C29.0494 20.4353 26.5418 19.4263 24.4058 18.5669C23.1806 18.0739 22.0776 17.6301 21.7409 16.8067C20.124 12.8521 17.0933 11.872 15.9822 11.7337V11.7238C15.9674 11.7251 15.9522 11.7266 15.9365 11.7283C15.9208 11.7266 15.9056 11.7251 15.8908 11.7238V11.7337ZM4.25068 17.1834C5.8985 16.9864 6.97308 14.989 6.65083 12.7221C6.32858 10.4552 4.73152 8.77726 3.0837 8.97429C1.43589 9.17132 0.361304 11.1687 0.683556 13.4356C1.00581 15.7025 2.60287 17.3804 4.25068 17.1834ZM17.9304 4.62149C17.5346 7.40515 18.8542 9.8579 20.8777 10.0998C22.9011 10.3418 24.8623 8.28133 25.258 5.49766C25.6537 2.714 24.3342 0.261252 22.3107 0.0193042C20.2872 -0.222644 18.3261 1.83782 17.9304 4.62149ZM27.2373 17.1834C25.5895 16.9864 24.5149 14.989 24.8372 12.7221C25.1594 10.4552 26.7565 8.77726 28.4043 8.97429C30.0521 9.17132 31.1267 11.1687 30.8044 13.4356C30.4822 15.7025 28.8851 17.3804 27.2373 17.1834Z" fill="#FF9900"/>
</svg>
