<svg width="30" height="28" viewBox="0 0 30 28" fill="none" xmlns="http://www.w3.org/2000/svg">
<path fill-rule="evenodd" clip-rule="evenodd" d="M12.8306 4.39874C13.2233 7.04823 11.914 9.38276 9.90624 9.61304C7.8985 9.84333 5.95261 7.88218 5.55997 5.23268C5.16733 2.58318 6.47663 0.24866 8.48437 0.0183738C10.4921 -0.211913 12.438 1.74924 12.8306 4.39874ZM15.1457 11.1681C14.0432 11.2998 11.0361 12.2326 9.43168 15.9966C9.09761 16.7804 8.00322 17.2028 6.78758 17.672C4.66811 18.49 2.18007 19.4503 2.7105 22.716C3.74681 29.0962 14.4086 29.4496 15.191 25.1141C15.9734 29.4496 26.6352 29.0962 27.6715 22.716C28.2019 19.4503 25.7139 18.49 23.5944 17.672C22.3788 17.2028 21.2844 16.7804 20.9503 15.9966C19.3459 12.2326 16.3388 11.2998 15.2363 11.1681V11.1587C15.2217 11.16 15.2065 11.1614 15.191 11.1631C15.1755 11.1614 15.1603 11.16 15.1457 11.1587V11.1681ZM3.59604 16.3552C5.23105 16.1676 6.29727 14.2665 5.97753 12.1089C5.65778 9.95127 4.07314 8.3542 2.43813 8.54174C0.803128 8.72927 -0.263099 10.6304 0.0566477 12.788C0.376395 14.9456 1.96104 16.5427 3.59604 16.3552ZM17.1694 4.39874C16.7767 7.04823 18.086 9.38276 20.0938 9.61304C22.1015 9.84333 24.0474 7.88218 24.44 5.23268C24.8327 2.58318 23.5234 0.24866 21.5156 0.0183738C19.5079 -0.211913 17.562 1.74924 17.1694 4.39874ZM26.404 16.3552C24.769 16.1676 23.7027 14.2665 24.0225 12.1089C24.3422 9.95127 25.9269 8.3542 27.5619 8.54174C29.1969 8.72927 30.2631 10.6304 29.9434 12.788C29.6236 14.9456 28.039 16.5427 26.404 16.3552Z" fill="#D2D2D2"/>
</svg>
