<svg width="45" height="45" viewBox="0 0 45 45" fill="none" xmlns="http://www.w3.org/2000/svg">
<g opacity="0.6" filter="url(#filter0_d_1087_1939)">
<path fill-rule="evenodd" clip-rule="evenodd" d="M22.5 43C33.8218 43 43 33.8218 43 22.5C43 11.1782 33.8218 2 22.5 2C11.1782 2 2 11.1782 2 22.5C2 33.8218 11.1782 43 22.5 43ZM32.3998 22.1826L21.5767 11.3359C20.9126 10.6703 19.8358 10.6703 19.1716 11.3359C18.5074 12.0015 18.5074 13.0807 19.1716 13.7463L28.7921 23.3878L19.1716 33.0292C18.5074 33.6948 18.5074 34.774 19.1716 35.4396C19.8358 36.1052 20.9126 36.1052 21.5767 35.4396L32.3998 24.5929C33.064 23.9273 33.064 22.8482 32.3998 22.1826Z" fill="white"/>
</g>
<defs>
<filter id="filter0_d_1087_1939" x="0" y="0" width="45" height="45" filterUnits="userSpaceOnUse" color-interpolation-filters="sRGB">
<feFlood flood-opacity="0" result="BackgroundImageFix"/>
<feColorMatrix in="SourceAlpha" type="matrix" values="0 0 0 0 0 0 0 0 0 0 0 0 0 0 0 0 0 0 127 0" result="hardAlpha"/>
<feOffset/>
<feGaussianBlur stdDeviation="1"/>
<feComposite in2="hardAlpha" operator="out"/>
<feColorMatrix type="matrix" values="0 0 0 0 0 0 0 0 0 0 0 0 0 0 0 0 0 0 0.25 0"/>
<feBlend mode="normal" in2="BackgroundImageFix" result="effect1_dropShadow_1087_1939"/>
<feBlend mode="normal" in="SourceGraphic" in2="effect1_dropShadow_1087_1939" result="shape"/>
</filter>
</defs>
</svg>
