<svg width="85" height="85" viewBox="0 0 85 85" fill="none" xmlns="http://www.w3.org/2000/svg">
<circle cx="42.5" cy="42.5" r="42.5" fill="#FF9900"/>
<path d="M31.384 46V43.8829H34.316L38.074 30.452C38.2633 29.6969 38.646 29.1006 39.222 28.663C39.7967 28.2241 40.4407 28.0046 41.154 28.0046H46.846C47.5593 28.0046 48.2033 28.2234 48.778 28.6609C49.354 29.0999 49.7367 29.6969 49.926 30.452L53.686 43.8829H56.616V46H31.384ZM43 22.4684V18.2342V14H45V18.2342V22.4684H43ZM53.9 27.2594L52.474 25.7499L58.15 19.7924L59.526 21.2511L53.9 27.2594ZM57 37.2881V35.171H65V37.2881H57ZM34.1 27.2594L28.474 21.2511L29.85 19.7924L35.526 25.7499L34.1 27.2594ZM23 37.2881V35.171H31V37.2881H23Z" fill="white"/>
<path d="M44.6176 32.1658H43V36.4V38.5171V40.6342H44.6176V38.5171V36.4V32.1658Z" fill="#FF9900"/>
<path d="M17.3112 51.2C18.2912 51.2 19.1685 51.41 19.9432 51.83C20.7179 52.2407 21.3245 52.8193 21.7632 53.566C22.2019 54.3127 22.4212 55.1573 22.4212 56.1C22.4212 57.0427 22.1972 57.8873 21.7492 58.634C21.3105 59.3713 20.6992 59.95 19.9152 60.37C19.1312 60.79 18.2399 61 17.2412 61H13.2372V51.2H17.3112ZM17.3532 59.348C17.9505 59.348 18.4872 59.2127 18.9632 58.942C19.4485 58.662 19.8265 58.2793 20.0972 57.794C20.3679 57.2993 20.5032 56.7393 20.5032 56.114C20.5032 55.4887 20.3632 54.9287 20.0832 54.434C19.8032 53.93 19.4159 53.5427 18.9212 53.272C18.4359 52.992 17.8899 52.852 17.2832 52.852H15.1132V59.348H17.3532ZM31.0712 61L30.2032 58.928H25.4152L24.5472 61H22.6012L26.8992 51.2H28.8452L33.0872 61H31.0712ZM26.0872 57.318H29.5312L27.8232 53.202L26.0872 57.318ZM41.1102 51.2H42.9302V61H41.1522L36.1122 54.252V61H34.2782V51.2H36.0562L41.1102 57.962V51.2ZM51.9888 56.128H53.6268V59.852C53.1134 60.2347 52.5068 60.5473 51.8068 60.79C51.1068 61.0233 50.4208 61.14 49.7488 61.14C48.7874 61.14 47.9101 60.916 47.1168 60.468C46.3328 60.02 45.7121 59.4133 45.2548 58.648C44.7974 57.8733 44.5688 57.0193 44.5688 56.086C44.5688 55.1527 44.8021 54.308 45.2688 53.552C45.7354 52.7867 46.3701 52.1847 47.1728 51.746C47.9848 51.298 48.8808 51.074 49.8608 51.074C50.5608 51.074 51.2514 51.2 51.9328 51.452C52.6141 51.704 53.2021 52.0493 53.6968 52.488L52.6328 53.874C52.2594 53.5193 51.8254 53.244 51.3308 53.048C50.8454 52.852 50.3554 52.754 49.8608 52.754C49.2448 52.754 48.6754 52.9033 48.1528 53.202C47.6394 53.4913 47.2334 53.8927 46.9348 54.406C46.6361 54.9193 46.4868 55.4793 46.4868 56.086C46.4868 56.702 46.6361 57.2667 46.9348 57.78C47.2428 58.2933 47.6534 58.6993 48.1668 58.998C48.6801 59.2967 49.2494 59.446 49.8748 59.446C50.2108 59.446 50.5608 59.3947 50.9248 59.292C51.2981 59.18 51.6528 59.026 51.9888 58.83V56.128ZM55.7978 51.2H62.9798V52.838H57.6738V55.26H62.4338V56.898H57.6738V59.362H63.1478V61H55.7978V51.2ZM71.1856 61L69.4916 58.102C69.4169 58.1113 69.3003 58.116 69.1416 58.116H66.9296V61H65.0536V51.2H69.1416C70.4109 51.2 71.3909 51.494 72.0816 52.082C72.7723 52.67 73.1176 53.5007 73.1176 54.574C73.1176 55.3393 72.9496 55.9927 72.6136 56.534C72.2869 57.0753 71.8063 57.4813 71.1716 57.752L73.3276 61H71.1856ZM66.9296 56.464H69.1416C69.8509 56.464 70.3923 56.31 70.7656 56.002C71.1389 55.694 71.3256 55.2367 71.3256 54.63C71.3256 54.0327 71.1389 53.5847 70.7656 53.286C70.3923 52.9873 69.8509 52.838 69.1416 52.838H66.9296V56.464Z" fill="white"/>
</svg>
