<svg width="85" height="85" viewBox="0 0 85 85" fill="none" xmlns="http://www.w3.org/2000/svg">
<circle cx="42.5" cy="42.5" r="42.5" fill="#FF9900"/>
<path d="M23.7305 65L21.3398 56.5156H22.9805L24.5156 62.7617H24.5977L26.2266 56.5156H27.7266L29.3672 62.7734H29.4375L30.9727 56.5156H32.6133L30.2227 65H28.7109L27.0117 59.0352H26.9531L25.2422 65H23.7305ZM32.5664 63.207C32.5664 61.7773 33.7559 61.3613 34.9336 61.2852C35.3789 61.25 36.2871 61.209 36.5684 61.1973L36.5625 60.6875C36.5625 60.0547 36.1582 59.6914 35.4141 59.6914C34.7461 59.6914 34.3359 59.9961 34.2188 60.4531H32.7773C32.8828 59.3691 33.8555 58.5547 35.4492 58.5547C36.6562 58.5547 38.0508 59.0527 38.0508 60.7461V65H36.6211V64.1211H36.5742C36.293 64.6602 35.7012 65.1289 34.6992 65.1289C33.4863 65.1289 32.5664 64.4668 32.5664 63.207ZM34.0078 63.1953C34.0078 63.7461 34.459 64.0273 35.0859 64.0273C35.9941 64.0273 36.5742 63.4297 36.5742 62.7148L36.5684 62.1934C36.2988 62.2051 35.4668 62.2578 35.168 62.2812C34.459 62.3398 34.0078 62.6387 34.0078 63.1953ZM42.2344 67.5195C40.5469 67.5195 39.4746 66.7695 39.375 65.5742H40.8633C40.9688 66.1309 41.4902 66.3887 42.2578 66.3945C43.1543 66.3887 43.7344 66.002 43.7344 65.0703V63.8516H43.6641C43.4297 64.3203 42.9199 64.9062 41.8242 64.9062C40.3535 64.9062 39.1992 63.8398 39.1992 61.7656C39.1992 59.6738 40.3594 58.5547 41.8359 58.5547C42.9551 58.5547 43.4297 59.2285 43.6641 59.6797H43.7344V58.6367H45.2109V65.1055C45.2109 66.7344 43.9512 67.5195 42.2344 67.5195ZM40.7227 61.7891C40.7227 62.9609 41.25 63.7344 42.2344 63.7344C43.2012 63.7344 43.7461 63.0078 43.7461 61.7891C43.7461 60.5762 43.207 59.7793 42.2344 59.7734C41.2383 59.7793 40.7227 60.6289 40.7227 61.7891ZM49.418 67.5195C47.7305 67.5195 46.6582 66.7695 46.5586 65.5742H48.0469C48.1523 66.1309 48.6738 66.3887 49.4414 66.3945C50.3379 66.3887 50.918 66.002 50.918 65.0703V63.8516H50.8477C50.6133 64.3203 50.1035 64.9062 49.0078 64.9062C47.5371 64.9062 46.3828 63.8398 46.3828 61.7656C46.3828 59.6738 47.543 58.5547 49.0195 58.5547C50.1387 58.5547 50.6133 59.2285 50.8477 59.6797H50.918V58.6367H52.3945V65.1055C52.3945 66.7344 51.1348 67.5195 49.418 67.5195ZM47.9062 61.7891C47.9062 62.9609 48.4336 63.7344 49.418 63.7344C50.3848 63.7344 50.9297 63.0078 50.9297 61.7891C50.9297 60.5762 50.3906 59.7793 49.418 59.7734C48.4219 59.7793 47.9062 60.6289 47.9062 61.7891ZM55.3242 56.5156V65H53.8242V56.5156H55.3242ZM59.5781 65.1289C57.6621 65.1289 56.4844 63.8516 56.4844 61.8594C56.4844 59.8906 57.6797 58.5547 59.4961 58.5547C61.0547 58.5547 62.4023 59.5332 62.4023 61.7656V62.2344H57.9609C57.9844 63.3184 58.623 63.9629 59.5898 63.957C60.2461 63.9629 60.6855 63.6816 60.8789 63.3008H62.3438C62.0742 64.4023 61.0547 65.1289 59.5781 65.1289ZM57.9668 61.2148H60.9727C60.9668 60.3477 60.3809 59.7148 59.5195 59.7148C58.623 59.7148 58.0195 60.4062 57.9668 61.2148Z" fill="white"/>
<path fill-rule="evenodd" clip-rule="evenodd" d="M40.686 23.0271C41.1048 26.0551 39.7082 28.7232 37.5667 28.9863C35.4251 29.2495 33.3495 27.0082 32.9306 23.9802C32.5118 20.9522 33.9084 18.2842 36.05 18.021C38.1916 17.7578 40.2672 19.9991 40.686 23.0271ZM43.1554 30.7636C41.9794 30.914 38.7718 31.9802 37.0605 36.2818C36.7041 37.1776 35.5368 37.6603 34.2401 38.1965C31.9793 39.1314 29.3254 40.2289 29.8912 43.9611C30.9966 51.2527 42.3692 51.6566 43.2037 46.7019C44.0383 51.6566 55.4109 51.2527 56.5163 43.9611C57.0821 40.2289 54.4281 39.1314 52.1674 38.1965C50.8707 37.6603 49.7033 37.1776 49.347 36.2818C47.6357 31.9802 44.4281 30.914 43.2521 30.7636V30.7528C43.2364 30.7543 43.2203 30.7559 43.2037 30.7578C43.1872 30.7559 43.171 30.7543 43.1554 30.7528V30.7636ZM30.8358 36.6916C32.5798 36.4773 33.7171 34.3046 33.376 31.8387C33.035 29.3729 31.3447 27.5477 29.6007 27.762C27.8567 27.9763 26.7194 30.149 27.0604 32.6149C27.4015 35.0807 29.0918 36.906 30.8358 36.6916ZM45.314 23.0271C44.8952 26.0551 46.2918 28.7232 48.4333 28.9863C50.5749 29.2495 52.6506 27.0082 53.0694 23.9802C53.4882 20.9522 52.0916 18.2842 49.95 18.021C47.8084 17.7578 45.7328 19.9991 45.314 23.0271ZM55.1642 36.6916C53.4202 36.4773 52.2829 34.3046 52.624 31.8387C52.965 29.3729 54.6553 27.5477 56.3993 27.762C58.1433 27.9763 59.2806 30.149 58.9396 32.6149C58.5985 35.0807 56.9082 36.906 55.1642 36.6916Z" fill="white"/>
</svg>
