<svg width="35" height="30" viewBox="0 0 35 30" fill="none" xmlns="http://www.w3.org/2000/svg">
<path d="M11.192 23V21.9414H12.658L14.537 15.226C14.6317 14.8485 14.823 14.5503 15.111 14.3315C15.3983 14.1121 15.7203 14.0023 16.077 14.0023H18.923C19.2797 14.0023 19.6017 14.1117 19.889 14.3305C20.177 14.5499 20.3683 14.8485 20.463 15.226L22.343 21.9414H23.808V23H11.192ZM17 11.2342V9.1171V7H18V9.1171V11.2342H17ZM22.45 13.6297L21.737 12.875L24.575 9.8962L25.263 10.6255L22.45 13.6297ZM24 18.6441V17.5855H28V18.6441H24ZM12.55 13.6297L9.737 10.6255L10.425 9.8962L13.263 12.875L12.55 13.6297ZM7 18.6441V17.5855H11V18.6441H7Z" fill="#D2D2D2"/>
<path d="M17.8088 16.0829H17V18.2V20.3171H17.8088V19.2586V18.2V16.0829Z" fill="white"/>
</svg>
