<svg width="18" height="18" viewBox="0 0 18 18" fill="none" xmlns="http://www.w3.org/2000/svg">
<path fill-rule="evenodd" clip-rule="evenodd" d="M10.7 4.35C10.7 5.09558 10.0956 5.7 9.35 5.7C8.60442 5.7 8 5.09558 8 4.35C8 3.60442 8.60442 3 9.35 3C10.0956 3 10.7 3.60442 10.7 4.35ZM10.7 9.35C10.7 10.0956 10.0956 10.7 9.35 10.7C8.60442 10.7 8 10.0956 8 9.35C8 8.60442 8.60442 8 9.35 8C10.0956 8 10.7 8.60442 10.7 9.35ZM9.35 15.7C10.0956 15.7 10.7 15.0956 10.7 14.35C10.7 13.6044 10.0956 13 9.35 13C8.60442 13 8 13.6044 8 14.35C8 15.0956 8.60442 15.7 9.35 15.7Z" fill="#686868"/>
</svg>
