<svg width="81" height="74" viewBox="0 0 81 74" fill="none" xmlns="http://www.w3.org/2000/svg">
<path d="M20.25 67.8335C18.3938 67.8335 16.8052 67.2302 15.4845 66.0236C14.1637 64.817 13.5022 63.3647 13.5 61.6668V30.8335C13.5 29.1377 14.1615 27.6864 15.4845 26.4798C16.8075 25.2732 18.396 24.6689 20.25 24.6668H23.625V18.5002C23.625 14.2349 25.2709 10.5996 28.5626 7.59441C31.8544 4.58919 35.8335 3.08555 40.5 3.0835C45.1688 3.0835 49.149 4.58714 52.4408 7.59441C55.7325 10.6017 57.3773 14.2369 57.375 18.5002V24.6668H60.75C62.6063 24.6668 64.1959 25.2712 65.5189 26.4798C66.8419 27.6885 67.5023 29.1397 67.5 30.8335V61.6668C67.5 63.3627 66.8396 64.8149 65.5189 66.0236C64.1981 67.2322 62.6085 67.8356 60.75 67.8335H20.25ZM40.5 52.4168C42.3563 52.4168 43.9459 51.8135 45.2689 50.6069C46.5919 49.4003 47.2523 47.9481 47.25 46.2502C47.25 44.5543 46.5896 43.1031 45.2689 41.8965C43.9481 40.6899 42.3585 40.0856 40.5 40.0835C38.6437 40.0835 37.0553 40.6878 35.7345 41.8965C34.4138 43.1052 33.7523 44.5564 33.75 46.2502C33.75 47.946 34.4115 49.3983 35.7345 50.6069C37.0575 51.8156 38.646 52.4189 40.5 52.4168ZM30.375 24.6668H50.625V18.5002C50.625 15.9307 49.6406 13.7467 47.6719 11.9481C45.7031 10.1495 43.3125 9.25016 40.5 9.25016C37.6875 9.25016 35.2969 10.1495 33.3281 11.9481C31.3594 13.7467 30.375 15.9307 30.375 18.5002V24.6668Z" fill="#7F7F7F"/>
</svg>
