<svg width="22" height="21" viewBox="0 0 22 21" fill="none" xmlns="http://www.w3.org/2000/svg">
<path id="Union" fill-rule="evenodd" clip-rule="evenodd" d="M9.40913 3.29905C9.69707 5.28618 8.73692 7.03707 7.26458 7.20978C5.79224 7.3825 4.36525 5.91163 4.07731 3.92451C3.78938 1.93739 4.74953 0.186495 6.22187 0.0137803C7.69421 -0.158934 9.1212 1.31193 9.40913 3.29905ZM11.1068 8.3761C10.2983 8.47484 8.09311 9.17449 6.91656 11.9975C6.67158 12.5853 5.86903 12.9021 4.97756 13.254C3.42328 13.8675 1.59872 14.5877 1.9877 17.037C2.74766 21.8221 10.5663 22.0872 11.1401 18.8356C11.7138 22.0872 19.5325 21.8221 20.2924 17.037C20.6814 14.5877 18.8568 13.8675 17.3026 13.254C16.4111 12.9021 15.6085 12.5853 15.3636 11.9975C14.187 9.17449 11.9818 8.47484 11.1733 8.3761V8.36901C11.1625 8.36998 11.1515 8.37107 11.1401 8.37229C11.1287 8.37107 11.1176 8.36998 11.1068 8.36901V8.3761ZM2.6371 12.2664C3.8361 12.1257 4.618 10.6999 4.38352 9.08167C4.14904 7.46346 2.98697 6.26565 1.78796 6.4063C0.588961 6.54695 -0.19294 7.9728 0.0415417 9.59101C0.276023 11.2092 1.43809 12.407 2.6371 12.2664ZM12.5909 3.29905C12.3029 5.28618 13.2631 7.03707 14.7354 7.20978C16.2078 7.3825 17.6348 5.91163 17.9227 3.92451C18.2106 1.93739 17.2505 0.186495 15.7781 0.0137803C14.3058 -0.158934 12.8788 1.31193 12.5909 3.29905ZM19.3629 12.2664C18.1639 12.1257 17.382 10.6999 17.6165 9.08167C17.851 7.46346 19.013 6.26565 20.212 6.4063C21.411 6.54695 22.1929 7.9728 21.9585 9.59101C21.724 11.2092 20.5619 12.407 19.3629 12.2664Z" fill="#FF9900"/>
</svg>
