<svg width="106" height="24" viewBox="0 0 106 24" fill="none" xmlns="http://www.w3.org/2000/svg">
<g id="PRIMARY LOGO">
<path id="Vector" d="M83.4368 17.9507C79.5592 17.9507 77.2041 15.3053 77.2041 11.5971C77.2041 7.88889 79.5592 5.24353 83.4368 5.24353C87.2192 5.24353 89.3839 8.0306 89.265 12.2348C89.2412 12.4474 89.1223 12.5419 88.9319 12.5419H80.4869C80.7724 14.2189 81.8191 15.2345 83.4605 15.2345C84.7213 15.2345 85.6015 14.7621 86.1725 13.8409C86.2676 13.6756 86.4103 13.652 86.5769 13.6992L88.6941 14.4314C88.8844 14.5023 88.9557 14.644 88.8606 14.833C87.7663 16.9823 85.7205 17.9507 83.4368 17.9507ZM80.5345 10.2508H85.9584C85.6729 8.81004 84.7451 7.95975 83.413 7.95975C81.9618 7.95975 80.9151 8.78642 80.5345 10.2508Z" fill="#FF9900"/>
<path id="Vector_2" d="M74.3819 17.7145H71.9079C71.7176 17.7145 71.5986 17.5964 71.5986 17.4074V0.307051C71.5986 0.118096 71.7176 0 71.9079 0H74.3819C74.5722 0 74.6912 0.118096 74.6912 0.307051V17.4074C74.6912 17.5964 74.5722 17.7145 74.3819 17.7145Z" fill="#FF9900"/>
<path id="Vector_3" d="M61.8544 23.0997C59.2138 23.0997 56.9301 21.9187 55.9785 19.5804C55.8834 19.3915 55.9548 19.2734 56.1451 19.2025L58.1433 18.4703C58.3098 18.3995 58.4526 18.4703 58.5477 18.6357C59.1425 19.6513 60.094 20.3126 61.7592 20.3126C63.6623 20.3126 65.2799 19.5096 65.2799 17.3366V16.2265C64.376 17.313 63.02 17.9507 61.4024 17.9507C57.8816 17.9507 55.6455 15.3526 55.6455 11.5971C55.6455 7.84165 57.8816 5.24353 61.4024 5.24353C63.1152 5.24353 64.5425 5.95211 65.4227 7.15669L65.494 5.78677C65.494 5.5742 65.6368 5.47972 65.8271 5.47972H68.0632C68.2535 5.47972 68.3725 5.59782 68.3725 5.78677V17.0296C68.3725 20.9267 65.7319 23.0997 61.8544 23.0997ZM62.1636 15.1636C64.1381 15.1636 65.494 13.6992 65.494 11.5971C65.494 9.495 64.1381 8.0306 62.1636 8.0306C60.1892 8.0306 58.8332 9.495 58.8332 11.5971C58.8332 13.6992 60.1892 15.1636 62.1636 15.1636Z" fill="#FF9900"/>
<path id="Vector_4" d="M46.6151 23.0997C43.9746 23.0997 41.6908 21.9187 40.7393 19.5804C40.6441 19.3915 40.7155 19.2734 40.9058 19.2025L42.9041 18.4703C43.0706 18.3995 43.2133 18.4703 43.3085 18.6357C43.9032 19.6513 44.8547 20.3126 46.52 20.3126C48.423 20.3126 50.0407 19.5096 50.0407 17.3366V16.2265C49.1367 17.313 47.7808 17.9507 46.1631 17.9507C42.6424 17.9507 40.4062 15.3526 40.4062 11.5971C40.4062 7.84165 42.6424 5.24353 46.1631 5.24353C47.8759 5.24353 49.3032 5.95211 50.1834 7.15669L50.2548 5.78677C50.2548 5.5742 50.3975 5.47972 50.5878 5.47972H52.824C53.0143 5.47972 53.1332 5.59782 53.1332 5.78677V17.0296C53.1332 20.9267 50.4927 23.0997 46.6151 23.0997ZM46.9244 15.1636C48.8988 15.1636 50.2548 13.6992 50.2548 11.5971C50.2548 9.495 48.8988 8.0306 46.9244 8.0306C44.9499 8.0306 43.5939 9.495 43.5939 11.5971C43.5939 13.6992 44.9499 15.1636 46.9244 15.1636Z" fill="#FF9900"/>
<path id="Vector_5" d="M30.9229 17.9507C27.4022 17.9507 25.166 15.3526 25.166 11.5971C25.166 7.84165 27.4022 5.24353 30.9229 5.24353C32.6357 5.24353 34.063 5.95211 34.9432 7.15669L35.0145 5.78677C35.0145 5.5742 35.1573 5.47972 35.3476 5.47972H37.5837C37.774 5.47972 37.893 5.59782 37.893 5.78677V17.4075C37.893 17.5964 37.774 17.7145 37.5837 17.7145H35.3476C35.1573 17.7145 35.0145 17.62 35.0145 17.4075L34.9432 16.0375C34.063 17.2421 32.6357 17.9507 30.9229 17.9507ZM31.6841 15.1636C33.6586 15.1636 35.0145 13.6992 35.0145 11.5971C35.0145 9.495 33.6586 8.0306 31.6841 8.0306C29.7097 8.0306 28.3537 9.495 28.3537 11.5971C28.3537 13.6992 29.7097 15.1636 31.6841 15.1636Z" fill="#FF9900"/>
<path id="Vector_6" d="M8.65606 17.7145H6.46749C6.30097 17.7145 6.15824 17.6436 6.11066 17.4783L0.0207477 0.732218C-0.0506185 0.519645 0.0683252 0.37793 0.282424 0.37793H3.30359C3.47011 0.37793 3.58906 0.448789 3.63663 0.637742L7.46662 12.3293L11.3442 0.637742C11.3918 0.448789 11.5107 0.37793 11.6772 0.37793H13.8182C13.9847 0.37793 14.1037 0.448789 14.1513 0.637742L18.0288 12.3529L21.8826 0.637742C21.9302 0.448789 22.0491 0.37793 22.2156 0.37793H25.1654C25.3795 0.37793 25.4985 0.519645 25.4271 0.732218L19.3372 17.4783C19.2896 17.6436 19.1469 17.7145 18.9804 17.7145H16.7918C16.6253 17.7145 16.5063 17.6436 16.4588 17.4547L12.7239 6.16465L8.9891 17.4547C8.94152 17.6436 8.82258 17.7145 8.65606 17.7145Z" fill="#FF9900"/>
<path id="Union" fill-rule="evenodd" clip-rule="evenodd" d="M97.4882 7.30819C97.6633 8.50915 97.0795 9.56735 96.1843 9.67173C95.2892 9.77611 94.4216 8.88716 94.2465 7.6862C94.0715 6.48524 94.6552 5.42704 95.5504 5.32266C96.4455 5.21828 97.3131 6.10723 97.4882 7.30819ZM98.5204 10.3766C98.0288 10.4363 96.6881 10.8591 95.9727 12.5653C95.8238 12.9205 95.3359 13.112 94.7939 13.3247C93.8489 13.6955 92.7396 14.1308 92.9761 15.611C93.4381 18.503 98.1917 18.6632 98.5406 16.6981C98.8894 18.6632 103.643 18.503 104.105 15.611C104.342 14.1308 103.232 13.6955 102.287 13.3247C101.745 13.112 101.257 12.9205 101.108 12.5653C100.393 10.8591 99.0523 10.4363 98.5608 10.3766V10.3723C98.5542 10.3729 98.5475 10.3736 98.5406 10.3743C98.5336 10.3736 98.5269 10.3729 98.5204 10.3723V10.3766ZM93.3709 12.7278C94.0999 12.6428 94.5753 11.7811 94.4327 10.803C94.2901 9.82504 93.5836 9.10112 92.8546 9.18613C92.1257 9.27113 91.6503 10.1329 91.7928 11.1109C91.9354 12.0889 92.6419 12.8128 93.3709 12.7278ZM99.4226 7.30819C99.2476 8.50915 99.8313 9.56735 100.727 9.67173C101.622 9.77611 102.489 8.88716 102.664 7.6862C102.839 6.48524 102.256 5.42704 101.36 5.32266C100.465 5.21828 99.5977 6.10723 99.4226 7.30819ZM103.54 12.7278C102.811 12.6428 102.336 11.7811 102.478 10.803C102.621 9.82504 103.327 9.10112 104.056 9.18613C104.785 9.27113 105.261 10.1329 105.118 11.1109C104.975 12.0889 104.269 12.8128 103.54 12.7278Z" fill="#FF9900"/>
</g>
</svg>
