<svg width="92" height="20" viewBox="0 0 92 20" fill="none" xmlns="http://www.w3.org/2000/svg">
<g id="PRIMARY LOGO">
<path id="Vector" d="M73.0073 15.5418C69.6144 15.5418 67.5537 13.2515 67.5537 10.0408C67.5537 6.83018 69.6144 4.53979 73.0073 4.53979C76.3169 4.53979 78.211 6.95288 78.1069 10.593C78.0861 10.777 77.9821 10.8588 77.8155 10.8588H70.4262C70.676 12.3108 71.5918 13.1901 73.0281 13.1901C74.1313 13.1901 74.9014 12.7811 75.401 11.9836C75.4843 11.8404 75.6091 11.82 75.7548 11.8609L77.6074 12.4948C77.7739 12.5562 77.8363 12.6789 77.7531 12.8425C76.7956 14.7034 75.0055 15.5418 73.0073 15.5418ZM70.4678 8.87517H75.2137C74.9639 7.62773 74.1521 6.89153 72.9864 6.89153C71.7167 6.89153 70.8009 7.60728 70.4678 8.87517Z" fill="white"/>
<path id="Vector_2" d="M65.0838 15.3374H62.919C62.7525 15.3374 62.6484 15.2352 62.6484 15.0716V0.265849C62.6484 0.102249 62.7525 0 62.919 0H65.0838C65.2503 0 65.3544 0.102249 65.3544 0.265849V15.0716C65.3544 15.2352 65.2503 15.3374 65.0838 15.3374Z" fill="white"/>
<path id="Vector_3" d="M54.1222 19.9999C51.8117 19.9999 49.8135 18.9774 48.9809 16.9529C48.8976 16.7893 48.96 16.687 49.1266 16.6257L50.875 15.9917C51.0207 15.9304 51.1456 15.9917 51.2289 16.1349C51.7493 17.0142 52.5819 17.5868 54.0389 17.5868C55.7041 17.5868 57.1196 16.8915 57.1196 15.0101V14.049C56.3286 14.9897 55.1421 15.5418 53.7267 15.5418C50.6461 15.5418 48.6895 13.2923 48.6895 10.0408C48.6895 6.78928 50.6461 4.53979 53.7267 4.53979C55.2254 4.53979 56.4743 5.15329 57.2444 6.19624L57.3069 5.01014C57.3069 4.82609 57.4318 4.74429 57.5983 4.74429H59.5549C59.7214 4.74429 59.8255 4.84654 59.8255 5.01014V14.7443C59.8255 18.1185 57.515 19.9999 54.1222 19.9999ZM54.3928 13.1287C56.1204 13.1287 57.3069 11.8609 57.3069 10.0408C57.3069 8.22078 56.1204 6.95288 54.3928 6.95288C52.6651 6.95288 51.4787 8.22078 51.4787 10.0408C51.4787 11.8609 52.6651 13.1287 54.3928 13.1287Z" fill="white"/>
<path id="Vector_4" d="M40.7882 19.9999C38.4777 19.9999 36.4795 18.9774 35.6469 16.9529C35.5636 16.7893 35.6261 16.687 35.7926 16.6257L37.541 15.9917C37.6868 15.9304 37.8116 15.9917 37.8949 16.1349C38.4153 17.0142 39.2479 17.5868 40.7049 17.5868C42.3701 17.5868 43.7856 16.8915 43.7856 15.0101V14.049C42.9946 14.9897 41.8081 15.5418 40.3927 15.5418C37.3121 15.5418 35.3555 13.2923 35.3555 10.0408C35.3555 6.78928 37.3121 4.53979 40.3927 4.53979C41.8914 4.53979 43.1403 5.15329 43.9105 6.19624L43.9729 5.01014C43.9729 4.82609 44.0978 4.74429 44.2643 4.74429H46.2209C46.3874 4.74429 46.4915 4.84654 46.4915 5.01014V14.7443C46.4915 18.1185 44.1811 19.9999 40.7882 19.9999ZM41.0588 13.1287C42.7864 13.1287 43.9729 11.8609 43.9729 10.0408C43.9729 8.22078 42.7864 6.95288 41.0588 6.95288C39.3311 6.95288 38.1447 8.22078 38.1447 10.0408C38.1447 11.8609 39.3311 13.1287 41.0588 13.1287Z" fill="white"/>
<path id="Vector_5" d="M27.0577 15.5418C23.9771 15.5418 22.0205 13.2923 22.0205 10.0408C22.0205 6.78928 23.9771 4.53979 27.0577 4.53979C28.5564 4.53979 29.8053 5.15329 30.5755 6.19624L30.6379 5.01014C30.6379 4.82609 30.7628 4.74429 30.9294 4.74429H32.886C33.0525 4.74429 33.1566 4.84654 33.1566 5.01014V15.0715C33.1566 15.2351 33.0525 15.3373 32.886 15.3373H30.9294C30.7628 15.3373 30.6379 15.2555 30.6379 15.0715L30.5755 13.8854C29.8053 14.9283 28.5564 15.5418 27.0577 15.5418ZM27.7238 13.1288C29.4515 13.1288 30.6379 11.8609 30.6379 10.0408C30.6379 8.22078 29.4515 6.95288 27.7238 6.95288C25.9962 6.95288 24.8097 8.22078 24.8097 10.0408C24.8097 11.8609 25.9962 13.1288 27.7238 13.1288Z" fill="white"/>
<path id="Vector_6" d="M7.57402 15.3374H5.65904C5.51333 15.3374 5.38844 15.276 5.34681 15.1329L0.0181542 0.633896C-0.044291 0.449847 0.0597843 0.327148 0.24712 0.327148H2.89063C3.03634 0.327148 3.14041 0.388499 3.18204 0.552097L6.53327 10.6748L9.92612 0.552097C9.96775 0.388499 10.0718 0.327148 10.2175 0.327148H12.0909C12.2366 0.327148 12.3407 0.388499 12.3823 0.552097L15.7752 10.6952L19.1472 0.552097C19.1888 0.388499 19.2929 0.327148 19.4386 0.327148H22.0197C22.207 0.327148 22.3111 0.449847 22.2486 0.633896L16.92 15.1329C16.8784 15.276 16.7535 15.3374 16.6078 15.3374H14.6928C14.5471 15.3374 14.443 15.276 14.4014 15.1124L11.1334 5.33737L7.86543 15.1124C7.8238 15.276 7.71973 15.3374 7.57402 15.3374Z" fill="white"/>
<path id="Union" fill-rule="evenodd" clip-rule="evenodd" d="M85.3014 6.32763C85.4546 7.36744 84.9438 8.28364 84.1605 8.37401C83.3773 8.46439 82.6181 7.69472 82.465 6.65491C82.3118 5.6151 82.8226 4.69891 83.6058 4.60853C84.3891 4.51815 85.1482 5.28782 85.3014 6.32763ZM86.2046 8.98432C85.7744 9.03598 84.6013 9.40209 83.9754 10.8793C83.8451 11.1869 83.4181 11.3526 82.9439 11.5368C82.117 11.8578 81.1464 12.2347 81.3533 13.5163C81.7576 16.0203 85.917 16.159 86.2222 14.4575C86.5275 16.159 90.6869 16.0203 91.0912 13.5163C91.2981 12.2347 90.3275 11.8578 89.5006 11.5368C89.0264 11.3526 88.5994 11.1869 88.4691 10.8793C87.8432 9.40209 86.67 9.03598 86.2399 8.98432V8.98061C86.2342 8.98111 86.2283 8.98169 86.2222 8.98232C86.2162 8.98169 86.2103 8.98111 86.2046 8.98061V8.98432ZM81.6988 11.02C82.3366 10.9464 82.7526 10.2003 82.6279 9.35352C82.5031 8.50675 81.8849 7.87997 81.2471 7.95357C80.6092 8.02717 80.1933 8.77328 80.318 9.62005C80.4427 10.4668 81.0609 11.0936 81.6988 11.02ZM86.9941 6.32763C86.8409 7.36744 87.3517 8.28364 88.1349 8.37401C88.9182 8.46439 89.6773 7.69472 89.8305 6.65491C89.9837 5.6151 89.4729 4.69891 88.6896 4.60853C87.9064 4.51815 87.1472 5.28782 86.9941 6.32763ZM90.5967 11.02C89.9588 10.9464 89.5429 10.2003 89.6676 9.35352C89.7923 8.50675 90.4106 7.87997 91.0484 7.95357C91.6863 8.02717 92.1022 8.77328 91.9775 9.62005C91.8527 10.4668 91.2345 11.0936 90.5967 11.02Z" fill="white"/>
</g>
</svg>
