<svg width="94" height="20" viewBox="0 0 94 20" fill="none" xmlns="http://www.w3.org/2000/svg">
<g id="SECONDARY LOGO" clip-path="url(#clip0_71_196)">
<path id="Vector" d="M74.0888 15.542C70.6457 15.542 68.5544 13.2516 68.5544 10.0409C68.5544 6.8303 70.6457 4.53992 74.0888 4.53992C77.4475 4.53992 79.3697 6.953 79.2641 10.5931C79.243 10.7771 79.1373 10.8589 78.9683 10.8589H71.4695C71.723 12.3109 72.6524 13.1902 74.1099 13.1902C75.2295 13.1902 76.0111 12.7812 76.518 11.9837C76.6025 11.8405 76.7293 11.8201 76.8771 11.861L78.7571 12.4949C78.9261 12.5563 78.9895 12.679 78.905 12.8426C77.9333 14.7035 76.1167 15.542 74.0888 15.542ZM71.5117 8.87529H76.3279C76.0744 7.62785 75.2506 6.89165 74.0677 6.89165C72.7792 6.89165 71.8497 7.6074 71.5117 8.87529Z" fill="white"/>
<path id="Vector_2" d="M66.0488 15.3374H63.852C63.683 15.3374 63.5774 15.2352 63.5774 15.0716V0.265849C63.5774 0.102249 63.683 0 63.852 0H66.0488C66.2178 0 66.3235 0.102249 66.3235 0.265849V15.0716C66.3235 15.2352 66.2178 15.3374 66.0488 15.3374Z" fill="white"/>
<path id="Vector_3" d="M54.9246 20C52.5799 20 50.552 18.9775 49.7071 16.953C49.6226 16.7894 49.686 16.6872 49.855 16.6258L51.6293 15.9919C51.7772 15.9305 51.904 15.9919 51.9884 16.135C52.5165 17.0144 53.3615 17.587 54.8401 17.587C56.53 17.587 57.9664 16.8917 57.9664 15.0103V14.0491C57.1637 14.9898 55.9597 15.542 54.5233 15.542C51.397 15.542 49.4114 13.2925 49.4114 10.0409C49.4114 6.78941 51.397 4.53992 54.5233 4.53992C56.0442 4.53992 57.3116 5.15341 58.0931 6.19636L58.1565 5.01026C58.1565 4.82622 58.2833 4.74442 58.4522 4.74442H60.4379C60.6068 4.74442 60.7125 4.84666 60.7125 5.01026V14.7444C60.7125 18.1186 58.3677 20 54.9246 20ZM55.1992 13.1289C56.9525 13.1289 58.1565 11.861 58.1565 10.0409C58.1565 8.2209 56.9525 6.953 55.1992 6.953C53.446 6.953 52.2419 8.2209 52.2419 10.0409C52.2419 11.861 53.446 13.1289 55.1992 13.1289Z" fill="white"/>
<path id="Vector_4" d="M41.3924 20C39.0477 20 37.0198 18.9775 36.1749 16.953C36.0904 16.7894 36.1538 16.6872 36.3227 16.6258L38.0971 15.9919C38.245 15.9305 38.3717 15.9919 38.4562 16.135C38.9843 17.0144 39.8292 17.587 41.3079 17.587C42.9978 17.587 44.4342 16.8917 44.4342 15.0103V14.0491C43.6315 14.9898 42.4274 15.542 40.991 15.542C37.8648 15.542 35.8792 13.2925 35.8792 10.0409C35.8792 6.78941 37.8648 4.53992 40.991 4.53992C42.5119 4.53992 43.7794 5.15341 44.5609 6.19636L44.6243 5.01026C44.6243 4.82622 44.751 4.74442 44.92 4.74442H46.9056C47.0746 4.74442 47.1802 4.84666 47.1802 5.01026V14.7444C47.1802 18.1186 44.8355 20 41.3924 20ZM41.667 13.1289C43.4202 13.1289 44.6243 11.861 44.6243 10.0409C44.6243 8.2209 43.4202 6.953 41.667 6.953C39.9137 6.953 38.7097 8.2209 38.7097 10.0409C38.7097 11.861 39.9137 13.1289 41.667 13.1289Z" fill="white"/>
<path id="Vector_5" d="M27.4588 15.542C24.3325 15.542 22.3469 13.2925 22.3469 10.0409C22.3469 6.7894 24.3325 4.53992 27.4588 4.53992C28.9797 4.53992 30.2471 5.15341 31.0287 6.19636L31.0921 5.01026C31.0921 4.82622 31.2188 4.74442 31.3878 4.74442H33.3734C33.5424 4.74442 33.648 4.84666 33.648 5.01026V15.0716C33.648 15.2352 33.5424 15.3375 33.3734 15.3375H31.3878C31.2188 15.3375 31.0921 15.2557 31.0921 15.0716L31.0287 13.8855C30.2471 14.9285 28.9797 15.542 27.4588 15.542ZM28.1348 13.1289C29.888 13.1289 31.0921 11.861 31.0921 10.0409C31.0921 8.2209 29.888 6.953 28.1348 6.953C26.3815 6.953 25.1775 8.2209 25.1775 10.0409C25.1775 11.861 26.3815 13.1289 28.1348 13.1289Z" fill="white"/>
<path id="Vector_6" d="M7.68626 15.3374H5.7429C5.59504 15.3374 5.46829 15.2761 5.42605 15.1329L0.0184232 0.633958C-0.0449473 0.449908 0.0606703 0.327209 0.250782 0.327209H2.93347C3.08133 0.327209 3.18695 0.38856 3.2292 0.552158L6.63009 10.6749L10.0732 0.552158C10.1155 0.38856 10.2211 0.327209 10.369 0.327209H12.2701C12.4179 0.327209 12.5236 0.38856 12.5658 0.552158L16.0089 10.6953L19.4309 0.552158C19.4732 0.38856 19.5788 0.327209 19.7267 0.327209H22.346C22.5361 0.327209 22.6417 0.449908 22.5784 0.633958L17.1707 15.1329C17.1285 15.2761 17.0017 15.3374 16.8539 15.3374H14.9105C14.7626 15.3374 14.657 15.2761 14.6148 15.1125L11.2984 5.33743L7.98199 15.1125C7.93975 15.2761 7.83413 15.3374 7.68626 15.3374Z" fill="white"/>
<path id="Union" fill-rule="evenodd" clip-rule="evenodd" d="M86.566 6.32757C86.7215 7.36738 86.2031 8.28358 85.4082 8.37395C84.6134 8.46433 83.843 7.69466 83.6875 6.65485C83.5321 5.61504 84.0505 4.69885 84.8453 4.60847C85.6402 4.51809 86.4106 5.28776 86.566 6.32757ZM87.4826 8.98425C87.0461 9.03592 85.8556 9.40203 85.2204 10.8792C85.0881 11.1868 84.6548 11.3526 84.1736 11.5367C83.3345 11.8578 82.3494 12.2346 82.5594 13.5163C82.9697 16.0202 87.1907 16.1589 87.5005 14.4574C87.8103 16.1589 92.0313 16.0202 92.4416 13.5163C92.6516 12.2346 91.6666 11.8578 90.8275 11.5367C90.3462 11.3526 89.9129 11.1868 89.7806 10.8792C89.1455 9.40203 87.9549 9.03592 87.5184 8.98425V8.98055C87.5126 8.98105 87.5067 8.98162 87.5005 8.98226C87.4944 8.98162 87.4884 8.98105 87.4826 8.98055V8.98425ZM82.91 11.0199C83.5573 10.9463 83.9794 10.2002 83.8529 9.35346C83.7263 8.50669 83.0989 7.87991 82.4516 7.95351C81.8043 8.02711 81.3822 8.77322 81.5088 9.61999C81.6353 10.4668 82.2627 11.0935 82.91 11.0199ZM88.2837 6.32757C88.1283 7.36738 88.6467 8.28358 89.4415 8.37395C90.2364 8.46433 91.0068 7.69466 91.1622 6.65485C91.3177 5.61504 90.7993 4.69885 90.0045 4.60847C89.2096 4.51809 88.4392 5.28776 88.2837 6.32757ZM91.9398 11.0199C91.2925 10.9463 90.8703 10.2002 90.9969 9.35346C91.1235 8.50669 91.7509 7.87991 92.3982 7.95351C93.0455 8.02711 93.4676 8.77322 93.341 9.61999C93.2144 10.4668 92.5871 11.0935 91.9398 11.0199Z" fill="white"/>
</g>
<defs>
<clipPath id="clip0_71_196">
<rect width="93.3634" height="20" fill="white"/>
</clipPath>
</defs>
</svg>
