<svg width="26" height="26" viewBox="0 0 26 26" fill="none" xmlns="http://www.w3.org/2000/svg">
<g id="B">
<circle id="Ellipse 31" cx="13" cy="13" r="13" fill="#0075FF"/>
<path id="Union" fill-rule="evenodd" clip-rule="evenodd" d="M19.5758 6.09998H15.9758C15.7549 6.09998 15.5758 6.27906 15.5758 6.49998C15.5758 6.72089 15.7549 6.89998 15.9758 6.89998L18.6101 6.89998L14.3967 11.1133C13.5073 10.3531 12.3527 9.89411 11.0909 9.89411C8.27928 9.89411 6 12.1734 6 14.985C6 17.7966 8.27928 20.0759 11.0909 20.0759C13.9025 20.0759 16.1818 17.7966 16.1818 14.985C16.1818 13.7231 15.7227 12.5685 14.9624 11.679L19.1758 7.46566V10.1C19.1758 10.3209 19.3549 10.5 19.5758 10.5C19.7967 10.5 19.9758 10.3209 19.9758 10.1V6.49998C19.9758 6.27906 19.7967 6.09998 19.5758 6.09998ZM15.3333 14.985C15.3333 17.328 13.4339 19.2274 11.0909 19.2274C8.74788 19.2274 6.84848 17.328 6.84848 14.985C6.84848 12.642 8.74788 10.7426 11.0909 10.7426C13.4339 10.7426 15.3333 12.642 15.3333 14.985Z" fill="white"/>
</g>
</svg>
