<svg width="84" height="84" viewBox="0 0 84 84" fill="none" xmlns="http://www.w3.org/2000/svg">
<g id="Group 206">
<g id="Ellipse 26" filter="url(#filter0_d_370_803)">
<circle cx="42" cy="40" r="36" fill="#FF9900"/>
<circle cx="42" cy="40" r="34.5" stroke="white" stroke-width="3"/>
</g>
<path id="Vector" d="M57.2968 48.3595C56.3917 46.8487 55.0464 42.5739 55.0464 36.9906C55.0464 33.6375 53.6719 30.4218 51.2254 28.0509C48.7788 25.6799 45.4606 24.3479 42.0006 24.3479C38.5407 24.3479 35.2225 25.6799 32.7759 28.0509C30.3294 30.4218 28.9549 33.6375 28.9549 36.9906C28.9549 42.5755 27.6079 46.8487 26.7029 48.3595C26.4718 48.7436 26.3492 49.18 26.3477 49.6246C26.3461 50.0692 26.4655 50.5064 26.6939 50.892C26.9223 51.2776 27.2516 51.5981 27.6486 51.821C28.0455 52.0439 28.4961 52.1615 28.9549 52.1618H35.6099C35.9109 53.5891 36.7113 54.8718 37.8758 55.7931C39.0403 56.7143 40.4974 57.2175 42.0006 57.2175C43.5039 57.2175 44.961 56.7143 46.1255 55.7931C47.29 54.8718 48.0904 53.5891 48.3914 52.1618H55.0464C55.505 52.1612 55.9554 52.0435 56.3522 51.8204C56.7489 51.5973 57.0779 51.2769 57.3061 50.8913C57.5343 50.5057 57.6536 50.0687 57.652 49.6242C57.6503 49.1797 57.5278 48.7435 57.2968 48.3595ZM42.0006 54.6903C41.1915 54.6901 40.4024 54.4468 39.7418 53.994C39.0812 53.5412 38.5817 52.9011 38.312 52.1618H45.6893C45.4196 52.9011 44.9201 53.5412 44.2595 53.994C43.5989 54.4468 42.8098 54.6901 42.0006 54.6903ZM28.9549 49.6333C30.2106 47.5409 31.5641 42.6924 31.5641 36.9906C31.5641 34.3081 32.6636 31.7356 34.6209 29.8388C36.5781 27.942 39.2327 26.8764 42.0006 26.8764C44.7686 26.8764 47.4232 27.942 49.3804 29.8388C51.3377 31.7356 52.4372 34.3081 52.4372 36.9906C52.4372 42.6877 53.7875 47.5362 55.0464 49.6333H28.9549Z" fill="white"/>
</g>
<defs>
<filter id="filter0_d_370_803" x="0" y="0" width="84" height="84" filterUnits="userSpaceOnUse" color-interpolation-filters="sRGB">
<feFlood flood-opacity="0" result="BackgroundImageFix"/>
<feColorMatrix in="SourceAlpha" type="matrix" values="0 0 0 0 0 0 0 0 0 0 0 0 0 0 0 0 0 0 127 0" result="hardAlpha"/>
<feOffset dy="2"/>
<feGaussianBlur stdDeviation="3"/>
<feComposite in2="hardAlpha" operator="out"/>
<feColorMatrix type="matrix" values="0 0 0 0 0 0 0 0 0 0 0 0 0 0 0 0 0 0 0.25 0"/>
<feBlend mode="normal" in2="BackgroundImageFix" result="effect1_dropShadow_370_803"/>
<feBlend mode="normal" in="SourceGraphic" in2="effect1_dropShadow_370_803" result="shape"/>
</filter>
</defs>
</svg>
