<svg width="24" height="18" viewBox="0 0 24 18" fill="none" xmlns="http://www.w3.org/2000/svg">
<g id="Frame 255">
<path id="Union" fill-rule="evenodd" clip-rule="evenodd" d="M12.4101 14.1425C9.77384 14.1718 7.04301 12.5974 3.43486 9.08639C7.11932 5.61366 9.89594 3.99862 12.5419 4C15.1807 4.00137 17.8557 5.61176 21.3363 9.07262C17.7653 12.4726 15.0522 14.113 12.4101 14.1425ZM22.4058 8.7295C18.7324 5.00352 15.7099 3.00165 12.5424 3C9.38094 2.99836 6.25278 4.99069 2.36935 8.71989L2 9.07457L2.3634 9.43536C6.17387 13.2184 9.25798 15.1777 12.4212 15.1424C15.5778 15.1072 18.6366 13.0859 22.3978 9.43952L22.7598 9.08855L22.4058 8.7295ZM14.898 8.64286C14.898 9.96072 13.7955 11.0714 12.3827 11.0714C10.9698 11.0714 9.86739 9.96072 9.86739 8.64286C9.86739 7.32499 10.9698 6.21429 12.3827 6.21429C13.7955 6.21429 14.898 7.32499 14.898 8.64286ZM15.898 8.64286C15.898 10.5364 14.3241 12.0714 12.3827 12.0714C10.4412 12.0714 8.86739 10.5364 8.86739 8.64286C8.86739 6.74931 10.4412 5.21429 12.3827 5.21429C14.3241 5.21429 15.898 6.74931 15.898 8.64286Z" fill="#686868"/>
</g>
</svg>
