<svg width="18" height="18" viewBox="0 0 18 18" fill="none" xmlns="http://www.w3.org/2000/svg">
<path d="M13.4472 2.23242C13.143 2.23316 12.8419 2.29413 12.5614 2.41182C12.2808 2.5295 12.0263 2.70158 11.8126 2.91811L2.91779 11.8124L2.88292 11.9884L2.26754 15.0822L2.09204 15.9079L2.91835 15.7324L6.0121 15.117L6.1876 15.0816L15.0824 6.18736C15.2995 5.97402 15.472 5.71957 15.5897 5.43887C15.7074 5.15817 15.768 4.85683 15.768 4.55245C15.768 4.24807 15.7074 3.94674 15.5897 3.66604C15.472 3.38534 15.2995 3.13089 15.0824 2.91755C14.8686 2.70105 14.614 2.52904 14.3333 2.41145C14.0527 2.29386 13.7515 2.23301 13.4472 2.23242ZM13.4472 3.30455C13.7307 3.30455 14.0165 3.43392 14.291 3.70898C14.8383 4.25573 14.8383 4.84917 14.291 5.39648L13.8871 5.78292L12.2165 4.11286L12.6035 3.70898C12.8785 3.43392 13.1637 3.30455 13.4472 3.30455ZM11.4262 4.9043L13.0957 6.57436L6.29335 13.3761C5.92613 12.6576 5.34148 12.0734 4.62273 11.7066L11.4262 4.9043ZM3.90273 12.6212C4.23564 12.7552 4.53804 12.955 4.79178 13.2087C5.04552 13.4625 5.24536 13.7649 5.37929 14.0978L3.53317 14.4668L3.90273 12.6212Z" fill="#686868"/>
</svg>
