<svg width="148" height="148" viewBox="0 0 148 148" fill="none" xmlns="http://www.w3.org/2000/svg">
<g id="Frame 20">
<rect x="1" y="1" width="146" height="146" rx="9" stroke="#FF9900" stroke-width="2"/>
<path id="Union" fill-rule="evenodd" clip-rule="evenodd" d="M67.4919 43.1388C68.6698 51.655 64.7419 59.1589 58.7187 59.8991C52.6955 60.6393 46.8578 54.3356 45.6799 45.8193C44.502 37.3031 48.4299 29.7993 54.4531 29.0591C60.4763 28.3189 66.314 34.6226 67.4919 43.1388ZM74.437 64.8976C71.1295 65.3207 62.1082 68.3192 57.295 80.4177C56.2928 82.9369 53.0096 84.2946 49.3627 85.8027C43.0043 88.4322 35.5402 91.5189 37.1315 102.016C40.2404 122.523 72.2258 123.659 74.573 109.724C76.9202 123.659 108.906 122.523 112.014 102.016C113.606 91.5189 106.142 88.4322 99.7832 85.8027C96.1363 84.2946 92.8532 82.9369 91.8509 80.4177C87.0378 68.3192 78.0165 65.3207 74.709 64.8976V64.8672C74.6649 64.8713 74.6196 64.876 74.573 64.8812C74.5264 64.876 74.481 64.8713 74.437 64.8672V64.8976ZM39.7881 81.5702C44.6931 80.9674 47.8918 74.8567 46.9326 67.9214C45.9733 60.9862 41.2194 55.8528 36.3144 56.4556C31.4094 57.0584 28.2107 63.1691 29.1699 70.1043C30.1292 77.0396 34.8831 82.173 39.7881 81.5702ZM80.5081 43.1388C79.3302 51.655 83.2581 59.1589 89.2813 59.8991C95.3045 60.6393 101.142 54.3356 102.32 45.8193C103.498 37.3031 99.5701 29.7993 93.5469 29.0591C87.5237 28.3189 81.686 34.6226 80.5081 43.1388ZM108.212 81.5702C103.307 80.9674 100.108 74.8567 101.067 67.9214C102.027 60.9862 106.781 55.8528 111.686 56.4556C116.591 57.0584 119.789 63.1691 118.83 70.1043C117.871 77.0396 113.117 82.173 108.212 81.5702Z" fill="#FF9900"/>
</g>
</svg>
