<svg width="148" height="148" viewBox="0 0 148 148" fill="none" xmlns="http://www.w3.org/2000/svg">
<circle cx="74" cy="74" r="73" fill="white" stroke="#FF9900" stroke-width="2"/>
<path d="M74 35C62.175 35 52.5 44.4897 52.5 59.8362C52.5 75.1828 62.175 82.4483 74 82.4483C85.825 82.4483 95.5 75.1828 95.5 59.8362C95.5 44.4897 85.825 35 74 35ZM51.5325 87.6379C40.1375 88.194 31 97.869 31 109.879V121H117V109.879C117 97.869 107.97 88.194 96.4675 87.6379C90.6625 94.4216 82.7075 97.2759 74 97.2759C65.2925 97.2759 57.3375 94.4216 51.5325 87.6379Z" fill="#FF9900"/>
</svg>
