<svg width="18" height="18" viewBox="0 0 18 18" fill="none" xmlns="http://www.w3.org/2000/svg">
<path d="M14.4605 13.6644C14.5128 13.7166 14.5543 13.7787 14.5825 13.8469C14.6108 13.9152 14.6254 13.9884 14.6254 14.0623C14.6254 14.1362 14.6108 14.2094 14.5825 14.2777C14.5543 14.346 14.5128 14.408 14.4605 14.4603C14.4083 14.5126 14.3462 14.554 14.2779 14.5823C14.2097 14.6106 14.1365 14.6251 14.0626 14.6251C13.9887 14.6251 13.9155 14.6106 13.8472 14.5823C13.7789 14.554 13.7169 14.5126 13.6646 14.4603L9.00007 9.79506L4.33554 14.4603C4.22999 14.5658 4.08684 14.6251 3.93757 14.6251C3.7883 14.6251 3.64515 14.5658 3.5396 14.4603C3.43405 14.3547 3.37476 14.2116 3.37476 14.0623C3.37476 13.9131 3.43405 13.7699 3.5396 13.6644L8.20483 8.99982L3.5396 4.33529C3.43405 4.22975 3.37476 4.08659 3.37476 3.93732C3.37476 3.78806 3.43405 3.6449 3.5396 3.53936C3.64515 3.43381 3.7883 3.37451 3.93757 3.37451C4.08684 3.37451 4.22999 3.43381 4.33554 3.53936L9.00007 8.20459L13.6646 3.53936C13.7701 3.43381 13.9133 3.37451 14.0626 3.37451C14.2118 3.37451 14.355 3.43381 14.4605 3.53936C14.5661 3.6449 14.6254 3.78806 14.6254 3.93732C14.6254 4.08659 14.5661 4.22975 14.4605 4.33529L9.7953 8.99982L14.4605 13.6644Z" fill="#686868"/>
</svg>
