<svg width="10" height="12" viewBox="0 0 10 12" fill="none" xmlns="http://www.w3.org/2000/svg">
<path fill-rule="evenodd" clip-rule="evenodd" d="M1.5 1.25V2.25H1C0.447715 2.25 0 2.69772 0 3.25V10.25C0 10.8023 0.447715 11.25 1 11.25H9C9.55229 11.25 10 10.8023 10 10.25V3.25C10 2.69772 9.55228 2.25 9 2.25H8.5V1.25C8.5 0.973858 8.27614 0.75 8 0.75C7.72386 0.75 7.5 0.973858 7.5 1.25V2.25H2.5V1.25C2.5 0.973858 2.27614 0.75 2 0.75C1.72386 0.75 1.5 0.973858 1.5 1.25ZM1 3.25H9V5.30469H1V3.25ZM1 6.30469V10.25H9V6.30469H1Z" fill="#686868"/>
</svg>
