<svg width="28" height="28" viewBox="0 0 28 28" fill="none" xmlns="http://www.w3.org/2000/svg">
<g id="search">
<path id="Vector" d="M20.8194 18.8197L16.9335 14.9129C17.5767 14.0586 17.924 13.0186 17.9228 11.95C17.9228 9.22061 15.6971 7 12.9614 7C10.2257 7 8 9.22061 8 11.95C8 14.6795 10.2257 16.9001 12.9614 16.9001C14.0324 16.9012 15.0748 16.5548 15.9311 15.913L19.817 19.8198C19.9522 19.9404 20.1286 20.0048 20.31 19.9997C20.4913 19.9947 20.6638 19.9205 20.7921 19.7925C20.9203 19.6646 20.9946 19.4925 20.9997 19.3115C21.0048 19.1306 20.9403 18.9546 20.8194 18.8197ZM9.41755 11.95C9.41755 11.2507 9.62539 10.5671 10.0148 9.98569C10.4042 9.40424 10.9577 8.95105 11.6052 8.68344C12.2528 8.41583 12.9653 8.34581 13.6528 8.48224C14.3402 8.61866 14.9717 8.95541 15.4673 9.44989C15.9629 9.94438 16.3004 10.5744 16.4372 11.2603C16.5739 11.9461 16.5037 12.657 16.2355 13.3031C15.9673 13.9492 15.5131 14.5014 14.9303 14.8899C14.3475 15.2784 13.6623 15.4858 12.9614 15.4858C12.0219 15.4847 11.1211 15.1118 10.4568 14.4489C9.79241 13.7861 9.41867 12.8874 9.41755 11.95Z" fill="#FF9900"/>
</g>
</svg>
