<svg width="25" height="24" viewBox="0 0 25 24" fill="none" xmlns="http://www.w3.org/2000/svg">
<g id="material-symbols:search">
<rect x="0.957031" width="24" height="24" rx="5" fill="white"/>
<path id="Vector" d="M20.557 21L14.257 14.7C13.757 15.1 13.182 15.4167 12.532 15.65C11.882 15.8833 11.1904 16 10.457 16C8.64036 16 7.10303 15.3707 5.84503 14.112C4.58703 12.8533 3.9577 11.316 3.95703 9.5C3.95703 7.68333 4.58636 6.146 5.84503 4.888C7.1037 3.63 8.64103 3.00067 10.457 3C12.2737 3 13.811 3.62933 15.069 4.888C16.327 6.14667 16.9564 7.684 16.957 9.5C16.957 10.2333 16.8404 10.925 16.607 11.575C16.3737 12.225 16.057 12.8 15.657 13.3L21.957 19.6L20.557 21ZM10.457 14C11.707 14 12.7697 13.5623 13.645 12.687C14.5204 11.8117 14.9577 10.7493 14.957 9.5C14.957 8.25 14.5194 7.18733 13.644 6.312C12.7687 5.43667 11.7064 4.99933 10.457 5C9.20703 5 8.14436 5.43767 7.26903 6.313C6.3937 7.18833 5.95636 8.25067 5.95703 9.5C5.95703 10.75 6.3947 11.8127 7.27003 12.688C8.14536 13.5633 9.2077 14.0007 10.457 14Z" fill="#FF9900"/>
</g>
</svg>
