<svg width="21" height="21" viewBox="0 0 21 21" fill="none" xmlns="http://www.w3.org/2000/svg">
<g id="fluent:ios-arrow-24-filled">
<path id="Vector" d="M3.22634 9.86382C3.14281 9.78488 3.04454 9.72317 2.93715 9.6822C2.82976 9.64124 2.71536 9.62183 2.60047 9.62508C2.48558 9.62833 2.37246 9.65417 2.26756 9.70114C2.16266 9.74811 2.06803 9.81528 1.98909 9.89882C1.91015 9.98236 1.84844 10.0806 1.80747 10.188C1.76651 10.2954 1.7471 10.4098 1.75035 10.5247C1.7536 10.6396 1.77945 10.7527 1.82642 10.8576C1.87338 10.9625 1.94056 11.0571 2.02409 11.1361L9.89909 18.5736C10.0616 18.7272 10.2766 18.8127 10.5002 18.8127C10.7238 18.8127 10.9389 18.7272 11.1013 18.5736L18.9772 11.1361C19.0626 11.0576 19.1315 10.963 19.18 10.8578C19.2285 10.7525 19.2556 10.6386 19.2597 10.5228C19.2638 10.4069 19.2449 10.2914 19.204 10.1829C19.1631 10.0745 19.101 9.97523 19.0215 9.89095C18.9419 9.80667 18.8463 9.73904 18.7404 9.69199C18.6344 9.64495 18.5202 9.61942 18.4043 9.6169C18.2884 9.61437 18.1732 9.6349 18.0653 9.67729C17.9574 9.71968 17.859 9.78308 17.7758 9.86382L10.5002 16.7343L3.22634 9.86382Z" fill="#FF9900"/>
</g>
</svg>
