<svg width="32" height="23" viewBox="0 0 32 23" fill="none" xmlns="http://www.w3.org/2000/svg">
<g id="Vector">
<path d="M6.59053 23V21.4783H8.75463L11.5284 11.8249C11.6681 11.2821 11.9506 10.8535 12.3757 10.5391C12.7999 10.2236 13.2752 10.0658 13.8017 10.0658H18.003C18.5295 10.0658 19.0048 10.2231 19.429 10.5375C19.8541 10.853 20.1366 11.2821 20.2763 11.8249L23.0515 21.4783H25.2142V23H6.59053ZM15.1642 6.08667V3.04333V0H16.6404V3.04333V6.08667H15.1642ZM23.2095 9.5302L22.157 8.44525L26.3464 4.16328L27.362 5.21171L23.2095 9.5302ZM25.4976 16.7383V15.2167H31.4023V16.7383H25.4976ZM8.5952 9.5302L4.44268 5.21171L5.4583 4.16328L9.64773 8.44525L8.5952 9.5302ZM0.402344 16.7383V15.2167H6.30711V16.7383H0.402344Z" fill="#9A9A9A"/>
<path d="M16.3582 13.0567H15.1642V16.1V19.1433H16.3582V17.6217V16.1V13.0567Z" fill="#9A9A9A"/>
</g>
</svg>
