<svg width="31" height="23" viewBox="0 0 31 23" fill="none" xmlns="http://www.w3.org/2000/svg">
<g id="Vector">
<path d="M6.18819 23V21.4783H8.35229L11.126 11.8249C11.2658 11.2821 11.5482 10.8535 11.9734 10.5391C12.3975 10.2236 12.8729 10.0658 13.3994 10.0658H17.6006C18.1271 10.0658 18.6025 10.2231 19.0266 10.5375C19.4518 10.853 19.7342 11.2821 19.874 11.8249L22.6492 21.4783H24.8118V23H6.18819ZM14.7619 6.08667V3.04333V0H16.2381V3.04333V6.08667H14.7619ZM22.8071 9.5302L21.7546 8.44525L25.944 4.16328L26.9597 5.21171L22.8071 9.5302ZM25.0952 16.7383V15.2167H31V16.7383H25.0952ZM8.19286 9.5302L4.04033 5.21171L5.05595 4.16328L9.24538 8.44525L8.19286 9.5302ZM0 16.7383V15.2167H5.90476V16.7383H0Z" fill="#FF9900"/>
<path d="M15.9559 13.0567H14.7619V16.1V19.1433H15.9559V17.6217V16.1V13.0567Z" fill="white"/>
</g>
</svg>
