<svg width="28" height="28" viewBox="0 0 28 28" fill="none" xmlns="http://www.w3.org/2000/svg">
<path d="M16.8655 8.83293L12.0835 14.0005L16.8655 19.1681C16.9511 19.2605 16.999 19.3844 16.999 19.5135C16.999 19.6425 16.9511 19.7665 16.8655 19.8588C16.8239 19.9035 16.7743 19.939 16.7195 19.9633C16.6647 19.9875 16.6059 20 16.5465 20C16.4871 20 16.4283 19.9875 16.3735 19.9633C16.3187 19.939 16.2691 19.9035 16.2275 19.8588L11.1393 14.3614C11.05 14.2648 11 14.1353 11 14.0005C11 13.8657 11.05 13.7362 11.1393 13.6397L16.2265 8.14226C16.2681 8.09724 16.3179 8.06145 16.3728 8.03702C16.4278 8.01259 16.4868 8 16.5465 8C16.6061 8 16.6652 8.01259 16.7201 8.03702C16.7751 8.06145 16.8249 8.09724 16.8665 8.14226C16.9521 8.23459 17 8.35853 17 8.48759C17 8.61666 16.9521 8.7406 16.8665 8.83293H16.8655Z" fill="#686868"/>
</svg>
