<svg width="28" height="28" viewBox="0 0 28 28" fill="none" xmlns="http://www.w3.org/2000/svg">
<path d="M11.1345 8.83293L15.9165 14.0005L11.1345 19.1681C11.0489 19.2605 11.001 19.3844 11.001 19.5135C11.001 19.6425 11.0489 19.7665 11.1345 19.8588C11.1761 19.9035 11.2257 19.939 11.2805 19.9633C11.3353 19.9875 11.3941 20 11.4535 20C11.5129 20 11.5717 19.9875 11.6265 19.9633C11.6813 19.939 11.7309 19.9035 11.7725 19.8588L16.8607 14.3614C16.95 14.2648 17 14.1353 17 14.0005C17 13.8657 16.95 13.7362 16.8607 13.6397L11.7735 8.14226C11.7319 8.09724 11.6821 8.06145 11.6272 8.03702C11.5722 8.01259 11.5132 8 11.4535 8C11.3939 8 11.3348 8.01259 11.2799 8.03702C11.2249 8.06145 11.1751 8.09724 11.1335 8.14226C11.0479 8.23459 11 8.35853 11 8.48759C11 8.61666 11.0479 8.7406 11.1335 8.83293H11.1345Z" fill="#686868"/>
</svg>
