<svg width="27" height="28" viewBox="0 0 27 28" fill="none" xmlns="http://www.w3.org/2000/svg">
<g id="down arrow">
<path id="Vector" d="M19.1671 10.6345L13.9995 15.4165L8.83187 10.6345C8.73954 10.5489 8.6156 10.501 8.48653 10.501C8.35747 10.501 8.23353 10.5489 8.1412 10.6345C8.0965 10.6761 8.06098 10.7257 8.03673 10.7805C8.01249 10.8353 8 10.8941 8 10.9535C8 11.0129 8.01249 11.0717 8.03673 11.1265C8.06098 11.1813 8.0965 11.2309 8.1412 11.2725L13.6386 16.3607C13.7352 16.45 13.8647 16.5 13.9995 16.5C14.1343 16.5 14.2638 16.45 14.3603 16.3607L19.8577 11.2735C19.9028 11.2319 19.9385 11.1821 19.963 11.1272C19.9874 11.0722 20 11.0132 20 10.9535C20 10.8939 19.9874 10.8348 19.963 10.7799C19.9385 10.7249 19.9028 10.6751 19.8577 10.6335C19.7654 10.5479 19.6415 10.5 19.5124 10.5C19.3833 10.5 19.2594 10.5479 19.1671 10.6335V10.6345Z" fill="#1B1B1B"/>
</g>
</svg>
