<svg width="18" height="18" viewBox="0 0 18 18" fill="none" xmlns="http://www.w3.org/2000/svg">
<path d="M6.2 4.80013V3.40013C6.2 3.15259 6.29833 2.9152 6.47337 2.74016C6.6484 2.56513 6.8858 2.4668 7.13333 2.4668H10.8667C11.1142 2.4668 11.3516 2.56513 11.5266 2.74016C11.7017 2.9152 11.8 3.15259 11.8 3.40013V4.80013M2 5.2668H16M3.4 5.2668V14.6001C3.4 14.8477 3.49833 15.0851 3.67337 15.2601C3.8484 15.4351 4.0858 15.5335 4.33333 15.5335H13.6667C13.9142 15.5335 14.1516 15.4351 14.3266 15.2601C14.5017 15.0851 14.6 14.8477 14.6 14.6001V5.2668M9 8.53346V13.2001M6.2 10.4001V13.2001M11.8 10.4001V13.2001" stroke="#686868"/>
</svg>
