<svg width="24" height="24" viewBox="0 0 24 24" fill="none" xmlns="http://www.w3.org/2000/svg">
<path d="M10 20H4V14C4 13.7348 3.89464 13.4804 3.70711 13.2929C3.51957 13.1054 3.26522 13 3 13C2.73478 13 2.48043 13.1054 2.29289 13.2929C2.10536 13.4804 2 13.7348 2 14V21C2 21.2652 2.10536 21.5196 2.29289 21.7071C2.48043 21.8946 2.73478 22 3 22H10C10.2652 22 10.5196 21.8946 10.7071 21.7071C10.8946 21.5196 11 21.2652 11 21C11 20.7348 10.8946 20.4804 10.7071 20.2929C10.5196 20.1054 10.2652 20 10 20ZM20.999 2H14C13.7348 2 13.4804 2.10536 13.2929 2.29289C13.1054 2.48043 13 2.73478 13 3C13 3.26522 13.1054 3.51957 13.2929 3.70711C13.4804 3.89464 13.7348 4 14 4H19.999V10C19.999 10.2652 20.1044 10.5196 20.2919 10.7071C20.4794 10.8946 20.7338 11 20.999 11C21.2642 11 21.5186 10.8946 21.7061 10.7071C21.8936 10.5196 21.999 10.2652 21.999 10V3C21.999 2.73478 21.8936 2.48043 21.7061 2.29289C21.5186 2.10536 21.2642 2 20.999 2Z" fill="white"/>
</svg>
